<svg id="Capa_1" enable-background="new 0 0 512.001 512.001" height="512" viewBox="0 0 512.001 512.001" width="512" xmlns="http://www.w3.org/2000/svg"><g><path d="m512 302.001c0-42.038-42.372-71.079-81.473-56.039l-44.354 16.838c3.141-11.406 4.827-23.409 4.827-35.8 0-102.152-77.939-177.572-115.396-213.817-3.463-3.352-6.455-6.246-8.998-8.789-4.29-4.29-10.743-5.573-16.347-3.251-5.604 2.321-9.259 7.791-9.259 13.858 0 38.859-27.053 66.363-55.694 95.481-31.614 32.142-64.306 65.378-64.306 116.519 0 12.391 1.687 24.393 4.827 35.8l-44.293-16.815c-39.235-15.091-81.534 14.03-81.534 56.015 0 24.656 15.458 47.166 38.49 56.025l49.749 19.037-49.719 18.901c-.213.081-.411.182-.618.271-22.176 8.82-37.902 30.484-37.902 55.766 0 33.084 26.916 60 60 60 20.386 0 26.168-7.031 196.04-70.729 180.03 67.535 176.208 70.729 195.96 70.729 33.084 0 60-26.916 60-60 0-25.281-15.725-46.945-37.901-55.765-.198-.086-.388-.183-.591-.261l-49.76-19.031 49.786-18.928c23.008-8.849 38.466-31.36 38.466-56.015zm-305.306-170.482c24.661-25.072 49.976-50.807 59.919-85.189 36.795 36.475 94.387 100.553 94.387 180.671 0 57.897-47.103 105-105 105s-105-47.103-105-105c0-38.86 27.053-66.364 55.694-95.482zm-176.694 170.482c0-20.969 21.114-35.572 40.826-27.992l72.729 27.611c24.213 36.366 65.575 60.381 112.445 60.381 11.601 0 22.865-1.472 33.615-4.237 27.893 10.668 97.275 37.203 124.617 47.66-13.552 11.01-22.232 27.796-22.232 46.577 0 3.22.262 6.379.753 9.463-10.129-3.887-322.175-123.281-343.518-131.448-11.505-4.425-19.235-15.684-19.235-28.015zm0 150c0-16.542 13.458-30 30-30s30 13.458 30 30-13.458 30-30 30-30-13.458-30-30zm89.245 9.472c.492-3.087.755-6.249.755-9.472 0-18.738-8.639-35.491-22.137-46.502l32.45-12.337 83.748 32.047zm332.755 20.528c-16.542 0-30-13.458-30-30s13.458-30 30-30 30 13.458 30 30-13.458 30-30 30zm10.819-152.006-81.156 30.854-52.851-20.213c15.75-10.127 29.262-23.44 39.633-39.017l72.79-27.634c19.528-7.511 40.765 6.94 40.765 28.015 0 12.332-7.73 23.591-19.181 27.995z"/><path d="m256.058 302.001h.01c41.703-.028 74.932-26.235 74.932-67.5 0-29.139-19.359-46.724-34.915-60.853-15.552-14.128-25.085-23.553-25.085-38.647 0-6.067-3.655-11.537-9.26-13.858-5.606-2.323-12.058-1.038-16.347 3.251-1.863 1.863-4.449 4.201-7.442 6.907-19.903 17.996-56.951 51.494-56.951 103.2 0 40.755 32.67 67.5 75.058 67.5zm-8.257-138.946c7.029 13.646 18.325 23.907 28.114 32.799 15.553 14.127 25.085 23.552 25.085 38.647 0 27.655-24.214 37.485-44.95 37.5-20.784-.002-45.05-9.824-45.05-37.5 0-31.569 19.93-55.196 36.801-71.446z"/></g></svg>